<svg xmlns="http://www.w3.org/2000/svg" xmlns:xlink="http://www.w3.org/1999/xlink" id="Layer_1" x="0" y="0" version="1.1" viewBox="0 0 1920.2 1054.9" style="enable-background:new 0 0 1920.2 1054.9" xml:space="preserve"><style type="text/css">.st0{opacity:.11;fill:url(#Path_195_1_);enable-background:new}.st1{fill:url(#Path_194_1_)}</style><g id="Group_111" transform="translate(0.13 -6328.591)"><linearGradient id="Path_195_1_" x1="654.029" x2="654.029" y1="7250.715" y2="7251.715" gradientTransform="matrix(1920.193 0 0 -1054.854 -1254902.75 7655829)" gradientUnits="userSpaceOnUse"><stop offset="0" style="stop-color:#361cc1"/><stop offset="1" style="stop-color:#2e82ef"/></linearGradient><path id="Path_195" d="M1920.1,7003.8c0,0-85.9-337.8-386.7-270.2c-300.8,67.5-439.4,0-538.3-145.2 s-352-127-574.6-79.2s-302.4-21.5-420.6-180.6c0,0,0.1,1054.9,0.1,1054.9H1920L1920.1,7003.8z" class="st0"/><linearGradient id="Path_194_1_" x1="654.029" x2="654.029" y1="7250.715" y2="7251.715" gradientTransform="matrix(1920.062 0 0 -1054.71 -1254817 7654785)" gradientUnits="userSpaceOnUse"><stop offset="0" style="stop-color:#361cc1"/><stop offset="1" style="stop-color:#2e82ef"/></linearGradient><path id="Path_194" d="M1920,7003.9c0,0-86.3-291.5-385.9-226.4c-299.6,65.1-437.7,0-536.1-139.9 c-98.5-139.9-348.5-144.6-576.5-88.3c-228,56.3-380-116.5-421.4-220.6c0.1,8,0,1054.7,0,1054.7h1920L1920,7003.9z" class="st1"/></g></svg>